<svg xmlns="http://www.w3.org/2000/svg" fill="none" viewBox="0 0 600 600"><path fill="#F3AD61" d="M37.5 495.6a25 25 0 0 1 24.8-24.8h18.6a24.8 24.8 0 1 1 0 49.6H62.2a25 25 0 0 1-24.7-24.8"/><path fill="#F9C23C" d="M371 337.5h176.8c13 0 19.6-16.4 10.4-26.1l-40.9-42.6a79.6 79.6 0 0 0-115.9 0l-40.8 42.6c-9.3 9.6-2.7 26.1 10.3 26.1m-281.3 0h176.9c13 0 19.6-16.5 10.3-26.1L236 268.8a79.6 79.6 0 0 0-116 0l-40.8 42.6c-9.2 9.6-2.6 26.1 10.4 26.1"/><path fill="#FEEFC2" d="M313.1 38C405.4 24.8 462.4 261.1 421 356.6S289.7 473.1 194.5 510.4q-15.4 6-32 6.1c-36 0-55.6 29.7-69.3-7a93 93 0 0 1 51.7-119c50.4-19.7 77.1-57.6 97.3-109 20.5-52.4 21.9-74 21.8-131 0-45.7-3-105 49.1-112.5"/><path fill="#FCD53F" d="m420.9 356.6-177.4-81.4a188 188 0 0 1-104 101c-54 21.3-90 79.3-60.5 138.6 59.1 118.1 342-1.3 342-158.2"/><path fill="#F9C23C" fill-rule="evenodd" d="M342 309a14 14 0 0 1 9.1 17.7C314 443 205.7 496.7 109 501.7a14 14 0 1 1-1.4-28.1C196.3 469 291.8 420 324.3 318a14 14 0 0 1 17.7-9" clip-rule="evenodd"/><path fill="#FFF478" d="m435.8 496.3-191.2-221h168.8a76 76 0 0 1 71.1 76.9v141.6c0 25-22.4 32.6-48.7 2.4"/></svg>